HIERARCHY
ROOT Hips
{
  OFFSET 0.000940514 47.6841 -0.128968
  CHANNELS 6 Xposition Yposition Zposition Zrotation Xrotation Yrotation
  JOINT RightHipJoint
  {
    OFFSET 0 0 0
    CHANNELS 3 Zrotation Xrotation Yrotation
    JOINT RightUpLeg
    {
      OFFSET -6.08134 -3.8863 0.128968
      CHANNELS 3 Zrotation Xrotation Yrotation
      JOINT RightLeg
      {
        OFFSET -0.557246 -16.0178 0.0626011
        CHANNELS 3 Zrotation Xrotation Yrotation
        JOINT RightFoot
        {
          OFFSET -0.113211 -17.963 0.310195
          CHANNELS 3 Zrotation Xrotation Yrotation
          JOINT RightToeBase
          {
            OFFSET -0.663182 -7.38523 8.38825
            CHANNELS 3 Zrotation Xrotation Yrotation
            End Site
            {
              OFFSET -0.406279 0.043209 5.537
            }
          }
        }
      }
    }
  }
  JOINT LeftHipJoint
  {
    OFFSET 0 0 0
    CHANNELS 3 Zrotation Xrotation Yrotation
    JOINT LeftUpLeg
    {
      OFFSET 6.08134 -3.8863 0.128968
      CHANNELS 3 Zrotation Xrotation Yrotation
      JOINT LeftLeg
      {
        OFFSET 0.557298 -16.0178 0.0567459
        CHANNELS 3 Zrotation Xrotation Yrotation
        JOINT LeftFoot
        {
          OFFSET 0.113211 -17.963 0.3102
          CHANNELS 3 Zrotation Xrotation Yrotation
          JOINT LeftToeBase
          {
            OFFSET 0.663182 -7.38523 8.38825
            CHANNELS 3 Zrotation Xrotation Yrotation
            End Site
            {
              OFFSET 0.406279 0.043209 5.537
            }
          }
        }
      }
    }
  }
  JOINT LowerBack
  {
    OFFSET 0 0 0
    CHANNELS 3 Zrotation Xrotation Yrotation
    JOINT Spine
    {
      OFFSET 0 5.0443 -0.164042
      CHANNELS 3 Zrotation Xrotation Yrotation
      JOINT Spine1
      {
        OFFSET 0 6.7752 -0.262859
        CHANNELS 3 Zrotation Xrotation Yrotation
        JOINT Spine2
        {
          OFFSET 0 7.06989 -0.278313
          CHANNELS 3 Zrotation Xrotation Yrotation
          JOINT RightShoulder
          {
            OFFSET -3.78479 6.42979 -0.288035
            CHANNELS 3 Zrotation Xrotation Yrotation
            JOINT RightArm
            {
              OFFSET -6.31165 -2.71771 0.0219277
              CHANNELS 3 Zrotation Xrotation Yrotation
              JOINT RightForeArm
              {
                OFFSET -11.5936 -0.943256 -0.406295
                CHANNELS 3 Zrotation Xrotation Yrotation
                JOINT RightHand
                {
                  OFFSET -17.7496 -0.164857 0.501109
                  CHANNELS 3 Zrotation Xrotation Yrotation
                  End Site
                  {
                    OFFSET -8.18929 -0.905915 0.215009
                  }
                }
              }
            }
          }
          JOINT LeftShoulder
          {
            OFFSET 3.78479 6.42979 -0.288035
            CHANNELS 3 Zrotation Xrotation Yrotation
            JOINT LeftArm
            {
              OFFSET 6.31165 -2.71771 0.0219277
              CHANNELS 3 Zrotation Xrotation Yrotation
              JOINT LeftForeArm
              {
                OFFSET 11.5936 -0.943256 -0.406295
                CHANNELS 3 Zrotation Xrotation Yrotation
                JOINT LeftHand
                {
                  OFFSET 17.7496 -0.164858 0.501109
                  CHANNELS 3 Zrotation Xrotation Yrotation
                  End Site
                  {
                    OFFSET 8.18929 -0.905915 0.215009
                  }
                }
              }
            }
          }
          JOINT Neck
          {
            OFFSET 0 10.3326 -0.261975
            CHANNELS 3 Zrotation Xrotation Yrotation
            JOINT Head
            {
              OFFSET 0 12.4977 0.713112
              CHANNELS 3 Zrotation Xrotation Yrotation
              End Site
              {
                OFFSET 0 26.9967 0
              }
            }
          }
        }
      }
    }
  }
}
MOTION
Frames:	13
Frame Time:	0.0333333
15.0561 21.962 -0.966872 -0.722988 13.6433 1.54671 1.98785e-16 0 -0 -127.476 -36.9583 -163.11 179.789 36.5262 -176.517 -46.1624 -16.6891 -8.66551 2.33145 -8.43947 -1.56488 1.98785e-16 0 -0 139.909 -25.9489 149.366 -179.794 35.166 149.844 18.618 -11.1622 2.84745 0.658933 10.269 -4.06842 1.98785e-16 0 -0 0.706462 9.65398 1.22963 1.22581 19.3204 2.38853 1.22581 19.3204 2.38853 12.5532 5.52108 24.0965 -2.40248 -18.8339 55.0532 3.50121 -33.3266 -2.73458 18.1969 0.825935 5.1565 -7.07372 3.27971 -18.5279 -19.1582 -15.0762 -86.8875 -3.09542 -25.0306 4.07443 -25.3656 0.842548 -3.7832 6.62845 -33.919 2.00308 -2.90661 6.01576 2.50348 
15.0147 21.7351 -0.87209 -0.71998 12.867 1.63253 -9.93923e-17 0 -0 -127.379 -35.9722 -162.64 179.777 35.2821 -176.278 -45.5185 -16.5934 -8.53638 2.1016 -7.74296 -0.697658 -9.93923e-17 0 -0 140.734 -25.7135 149.048 -179.787 34.2024 149.663 18.2395 -11.345 2.86901 0.513463 11.0278 -3.69917 -9.93923e-17 0 -0 0.706409 9.50778 1.17507 1.23791 19.0276 2.27743 1.23791 19.0276 2.27743 12.8416 5.65285 24.3765 -2.5834 -17.6928 54.5507 3.82587 -33.8377 -2.606 18.6878 0.802013 4.87066 -7.66484 3.38503 -18.4557 -19.4099 -13.9317 -86.1517 -3.34668 -25.3882 4.08426 -25.9913 0.835274 -3.65386 6.78514 -33.6651 1.83391 -3.14447 5.79123 2.4294 
15.0628 21.7528 -0.782242 -0.750257 12.844 1.33532 9.93923e-17 -3.18055e-15 -3.97569e-16 -127.202 -36.4955 -162.869 179.787 35.5506 -176.676 -46.3283 -16.265 -8.52925 2.1825 -8.14397 -0.254844 9.93923e-17 -3.18055e-15 -3.97569e-16 140.477 -25.9182 148.551 -179.779 33.8873 149.644 18.6642 -12.1475 3.04427 0.594212 11.3708 -3.9713 9.93923e-17 -3.18055e-15 -3.97569e-16 0.670668 9.32289 1.22603 1.1594 18.6576 2.38821 1.1594 18.6576 2.38821 12.47 5.5817 24.4932 -1.52205 -17.4828 54.3785 3.78746 -32.8535 -2.33081 18.21 0.777466 4.84929 -8.45927 3.47775 -18.0547 -19.7402 -13.2322 -85.9746 -3.50183 -24.205 4.04864 -25.9344 0.845147 -3.7051 6.1346 -34.2959 1.58246 -2.4957 5.91582 1.99739 
15.0818 22.1275 -0.78391 -0.618643 13.6979 1.21765 -9.93923e-17 0 -3.97569e-16 -126.773 -37.8116 -162.649 179.807 37.0813 -176.576 -47.1062 -16.3051 -8.6349 2.59639 -9.62193 -0.58028 -9.93923e-17 0 -3.97569e-16 138.951 -27.0468 148.812 -179.781 35.0935 150.062 20.4002 -12.3208 3.23166 0.798268 9.77035 -4.46716 -9.93923e-17 0 -3.97569e-16 0.55745 9.03985 1.23497 0.932345 18.0894 2.42581 0.932346 18.0894 2.42581 12.6791 5.5892 24.2705 -1.53169 -16.7679 54.8949 3.93145 -34.6055 -2.57106 18.4801 0.777143 4.77514 -8.05664 3.37457 -17.905 -20.3162 -12.6955 -85.4754 -3.39626 -24.936 4.0706 -25.7397 0.832159 -3.67715 6.74576 -35.3928 1.74512 -3.00966 6.20025 2.20248 
15.0188 22.8428 -0.893842 -0.405779 15.5513 1.15295 4.96962e-17 -3.18055e-15 -0 -126.741 -39.4364 -162.52 179.829 39.963 -175.619 -46.8234 -15.8965 -8.33436 2.95896 -10.8372 -2.10436 4.96962e-17 -3.18055e-15 -0 137.253 -29.136 148.995 -179.803 37.7736 150.251 21.0867 -13.2347 3.4197 0.70916 9.68769 -4.1741 4.96962e-17 -3.18055e-15 -0 0.444963 8.61412 1.25838 0.708151 17.2358 2.49123 0.708151 17.2358 2.49123 12.844 5.63667 24.2961 -1.41993 -16.4938 54.9354 3.81561 -34.308 -2.94722 18.3009 0.834741 5.1786 -8.61268 3.50211 -18.0263 -19.012 -12.3618 -84.5337 -3.78883 -25.7762 4.09408 -25.6768 0.827129 -3.66462 6.67095 -35.8586 1.73161 -3.01683 6.18322 2.15953 
15.0246 23.8464 -0.966591 -0.205095 18.1155 1.0068 4.96962e-17 -3.18055e-15 -3.97569e-16 -126.77 -41.2976 -161.674 179.824 43.1846 -174.308 -45.4172 -17.1179 -8.53476 2.80815 -10.2477 -2.00166 4.96962e-17 -3.18055e-15 -3.97569e-16 134.846 -31.6241 148.363 -179.804 41.1236 149.957 21.1221 -15.5174 3.7683 0.626487 10.359 -3.98771 4.96962e-17 -3.18055e-15 -3.97569e-16 0.34317 8.1908 1.28796 0.505882 16.3873 2.56577 0.505883 16.3873 2.56577 13.1486 5.66417 24.057 -1.60024 -16.336 55.0692 4.09606 -33.29 -2.3938 18.2061 0.803076 5.00914 -8.21962 3.46355 -18.2581 -20.0218 -12.3556 -84.2826 -3.42128 -24.7501 4.06453 -25.6281 0.928726 -4.1181 7.17078 -36.8403 1.76915 -3.4709 6.22064 2.22883 
15.012 25.1115 -1.09904 0.0134109 21.0826 0.958249 4.96962e-17 3.18055e-15 -9.93923e-17 -126.485 -43.7325 -161.18 179.846 47.9155 -173.105 -44.7921 -17.1935 -8.34646 2.94467 -10.7795 -1.94622 4.96962e-17 3.18055e-15 -9.93923e-17 132.222 -34.8503 148.684 -179.837 45.7497 150.032 22.4631 -16.6202 4.10653 0.455387 8.20177 -3.19513 4.96962e-17 3.18055e-15 -9.93923e-17 0.253532 7.72374 1.25151 0.339628 15.4512 2.50282 0.339628 15.4512 2.50281 12.8237 5.5328 23.8264 -0.382514 -16.2383 55.6402 3.99469 -34.1136 -2.39125 17.706 0.816684 5.23872 -8.66063 3.50621 -17.9929 -20.3464 -12.2804 -84.2519 -3.32764 -23.857 4.03987 -25.2333 0.961888 -4.3317 7.10076 -37.8436 1.5911 -3.36953 6.58956 1.98234 
14.9644 26.5407 -1.24919 -0.0396553 24.0156 1.09686 1.49089e-16 0 -3.97569e-16 -125.813 -46.3598 -160.151 179.874 53.3287 -171.305 -43.0635 -16.7231 -7.74513 3.19731 -11.7109 -2.89378 1.49089e-16 0 -3.97569e-16 130.194 -37.9438 148.225 -179.837 51.0832 149.689 21.4541 -17.6576 4.05842 0.403705 9.0597 -3.14744 1.49089e-16 0 -3.97569e-16 0.22186 7.30448 1.21599 0.289469 14.612 2.43325 0.289469 14.612 2.43325 12.9079 5.54365 23.7787 0.481866 -16.2305 56.0312 3.73799 -33.0814 -2.71672 17.7175 0.89205 5.71832 -8.76782 3.50244 -17.8461 -20.9941 -12.0124 -84.148 -3.19925 -22.0102 3.99093 -24.69 1.0103 -4.64972 7.33784 -38.1176 1.55803 -3.64588 6.60931 1.99656 
14.951 28.1525 -1.36666 -0.00298637 27.1571 1.40194 -1.98785e-16 0 -3.97569e-16 -124.487 -48.253 -157.524 179.843 58.1467 -168.828 -39.1251 -18.7869 -7.71681 2.38493 -8.58936 -1.74249 -1.98785e-16 0 -3.97569e-16 127.822 -41.6866 148.139 -179.851 57.0721 150.003 21.5688 -18.9061 4.23906 0.647251 9.83603 -3.99589 -1.98785e-16 0 -3.97569e-16 0.14021 6.88216 1.17361 0.138719 13.7658 2.35591 0.138718 13.7658 2.35591 13.7845 5.72414 23.5906 0.677593 -16.1187 56.0416 3.74924 -31.7502 -2.57176 17.0981 0.837536 5.56772 -8.9489 3.52652 -17.7831 -21.0805 -11.8184 -84.2646 -3.37831 -17.5373 3.88381 -24.5743 1.24182 -5.7357 7.50569 -38.2206 1.53324 -3.37424 6.6536 1.88737 
14.9063 29.8528 -1.41164 -0.347925 30.5781 1.54531 -9.93923e-17 0 -0 -122.169 -50.9026 -155.598 179.813 64.2394 -167.078 -36.7031 -20.0526 -7.57621 1.69529 -6.53492 0.493843 -9.93923e-17 0 -0 125.618 -44.9563 148.514 -179.886 63.9591 149.969 22.7379 -17.4782 4.10044 0.56799 6.47849 -3.36462 -9.93923e-17 0 -0 0.142237 6.40708 1.13846 0.156887 12.8157 2.28243 0.156888 12.8157 2.28243 14.2551 5.86832 23.7099 0.776317 -15.4598 55.5387 3.92521 -30.0868 -2.19267 15.8846 0.808813 5.79355 -9.35342 3.56604 -17.5591 -20.1703 -11.3404 -83.5361 -3.72604 -14.7273 3.8253 -23.883 1.29212 -6.14185 7.2716 -37.7642 1.52524 -2.68057 5.78805 1.71596 
14.8797 31.5575 -1.40822 -0.607979 33.6218 1.74823 -1.98785e-16 3.18055e-15 3.97569e-16 -118.845 -53.6692 -153.939 179.881 71.4076 -165.499 -36.676 -18.4673 -6.93547 2.14153 -8.25186 1.10123 -1.98785e-16 3.18055e-15 3.97569e-16 122.405 -47.9357 147.476 -179.837 70.8472 149.009 22.3882 -16.8145 3.83171 0.373971 5.67641 -2.58468 -1.98785e-16 3.18055e-15 3.97569e-16 0.11227 6.00588 1.14505 0.103923 12.0128 2.2973 0.103923 12.0128 2.2973 15.1119 6.05877 23.5962 0.431627 -14.5902 54.6174 4.31118 -28.962 -1.45822 15.664 0.857716 6.22908 -9.1775 3.55062 -17.6651 -19.1115 -10.6267 -82.7334 -4.1089 -14.3221 3.8164 -23.0122 1.26183 -6.23401 8.14869 -38.5837 1.6529 -3.18411 6.56772 1.87322 
14.8521 33.3044 -1.38173 -0.636942 36.5478 1.76719 0 0 -1.98785e-16 -114.682 -55.9373 -151.446 179.863 78.9261 -162.189 -35.376 -16.0165 -5.80388 2.46615 -9.25718 0.0746449 0 0 -1.98785e-16 118.187 -50.7479 146.245 -179.897 78.2597 147.829 22.8713 -15.1771 3.52031 0.312785 4.3767 -2.15847 0 0 -1.98785e-16 0.0653478 5.59544 1.12799 0.0195252 11.1911 2.26587 0.0195238 11.1911 2.26587 15.3679 6.16436 23.772 0.847115 -13.6513 53.4766 4.61979 -28.4979 -0.467759 16.108 0.882788 6.23068 -9.76377 3.65628 -17.6269 -18.088 -9.9482 -81.8018 -4.49103 -11.2493 3.76061 -22.586 1.30618 -6.56286 7.46715 -38.3564 1.57429 -2.72358 5.71403 1.71345 
14.8344 35.0332 -1.30083 -0.890506 38.9074 1.8102 9.93923e-17 0 -1.98785e-16 -108.868 -57.9638 -147.332 179.497 86.3722 -157.844 -32.3115 -13.6924 -4.52462 2.44238 -9.11636 -0.219882 9.93923e-17 0 -1.98785e-16 112.581 -52.8818 143.17 -179.587 85.8432 144.791 21.3444 -13.6142 2.93342 0.274618 4.15831 -1.98363 9.93923e-17 0 -1.98785e-16 0.0372695 5.23401 1.11188 -0.0281363 10.4677 2.23441 -0.028136 10.4677 2.23441 15.819 6.26707 23.7216 0.908569 -12.3007 52.4534 5.08906 -25.9954 0.958332 16.8051 0.93051 6.29691 -10.1693 3.71799 -17.5367 -17.2976 -9.24942 -80.7468 -4.84778 -5.82845 3.68017 -23.7186 1.58502 -7.58363 7.16469 -38.2473 1.78133 -2.34348 5.3694 1.81075 
